<svg xmlns="http://www.w3.org/2000/svg" viewBox="0 0 64 64" fill="none">
  
  <rect x="0" y="0" width="64" height="64" fill="#1F4A30"></rect>
  
  <path d="M 4 4 L 14 4 M 4 4 L 4 14" stroke="#FAFAF5" stroke-width="1.5"></path>
  <path d="M 60 4 L 50 4 M 60 4 L 60 14" stroke="#FAFAF5" stroke-width="1.5"></path>
  <path d="M 4 60 L 14 60 M 4 60 L 4 50" stroke="#FAFAF5" stroke-width="1.5"></path>
  <path d="M 60 60 L 50 60 M 60 60 L 60 50" stroke="#FAFAF5" stroke-width="1.5"></path>
  
  <path d="M 16 22 Q 32 16 32 32 Q 32 48 48 42" stroke="#FAFAF5" stroke-width="2.2" fill="none" stroke-linecap="round"></path>
  <path d="M 18 19 L 16 22 L 19 24 M 14 22 L 16 22 L 16 25 M 17 27 L 19 26 L 18 29 M 21 17 L 22 20 L 19 21 M 25 16 L 25 19 L 22 18 M 29 15 L 28 18 L 25 17" stroke="#9B3618" stroke-width="1.4" fill="none" stroke-linecap="round"></path>
  
  <path d="M 16 22 Q 32 16 32 32 Q 32 48 48 42" stroke="#9B3618" stroke-width="1.4" stroke-dasharray="2 4" fill="none" stroke-linecap="round" stroke-dashoffset="1"></path>
</svg>